<?xml version="1.0" encoding="UTF-8"?>
<svg id="Laag_1" data-name="Laag 1" xmlns="http://www.w3.org/2000/svg" viewBox="0 0 595.28 621.14">
  <defs>
    <style>
      .cls-1 {
        fill: #1a9cd8;
      }
    </style>
  </defs>
  <path class="cls-1" d="M23.11,300.01c0-2.75,0-5.5,0-8.25.1-.39.28-.79.28-1.18.03-2.16.03-4.31,0-6.47,0-.4-.18-.79-.28-1.18,0-.2,0-.39,0-.59.38-.16.78-.48,1.14-.44,2.06.2,4.11.64,6.17.7,4.38.14,8.73-.09,13.08-.79,7.2-1.16,13.96-3.44,20.29-7.02,5.75-3.25,10.94-7.17,15.41-12.11,4.44-4.91,8.08-10.26,10.93-16.24,3.29-6.92,5.12-14.21,5.66-21.77.44-6.16.02-12.33-1.4-18.39-1.08-4.59-2.66-9.02-4.69-13.25-2.36-4.93-5.22-9.58-9.06-13.52-2.81-2.88-5.6-5.86-8.74-8.35-3.15-2.49-6.6-4.68-10.16-6.55-3.44-1.81-7.17-3.04-10.79-4.53.11-.32.25-.78.45-1.22,3.52-7.9,6.92-15.85,10.6-23.67,3.07-6.52,6.34-12.96,9.75-19.31,3.57-6.65,7.32-13.21,11.17-19.7,5.06-8.51,10.18-16.98,15.49-25.33,5.88-9.25,12-18.34,18.02-27.5,4.43-6.75,8.87-13.5,13.3-20.24,1.37-2.08,2.76-4.16,4.16-6.28,49.99,31.39,104.33,47.03,163.15,46.29,58.74-.75,112.54-17.88,161.69-50.39,1.53,2.39,3.03,4.79,4.58,7.16,5.6,8.57,11.22,17.12,16.84,25.68,6.32,9.64,12.76,19.22,18.93,28.96,5.35,8.44,10.54,16.99,15.53,25.65,4.77,8.28,9.29,16.7,13.73,25.16,2.82,5.37,5.37,10.88,7.91,16.39,2.82,6.13,5.5,12.32,8.25,18.51-31.77,9.42-51.67,41.5-43.27,75.53,3.72,15.07,12.33,27.13,25.16,35.9,13.71,9.37,28.92,12.65,45.45,10.16,0,3.16-.01,6.25.01,9.34,0,.49.18.99.28,1.48v6.19c-.1.2-.27.39-.28.6-.21,6.59-.4,13.18-.61,19.77-.08,2.39-.18,4.77-.3,7.16-.07,1.41-.16,2.81-.31,4.21-.46,4.22-.96,8.45-1.45,12.67-.39,3.36-.66,6.74-1.23,10.06-.85,4.97-1.85,9.91-2.9,14.84-1.83,8.67-4.34,17.09-8.86,24.82-4.1,7.01-7.89,14.21-12.13,21.14-5.74,9.38-11.59,18.72-17.77,27.81-4.54,6.68-9.6,13.03-14.62,19.38-3.12,3.95-6.42,7.81-9.95,11.39-4.45,4.52-9.08,8.88-13.9,13.01-4.24,3.63-8.72,7-13.32,10.18-5.01,3.47-10.28,6.58-15.43,9.85-7.26,4.61-14.52,9.22-21.78,13.83-11.03,7-22.07,14-33.11,21-8.32,5.28-16.64,10.55-24.95,15.84-10.74,6.83-21.47,13.69-32.22,20.52-7.74,4.92-15.51,9.81-23.26,14.73-3.98,2.52-7.94,5.07-11.91,7.61-4.76,3.05-9.52,6.11-14.27,9.17h-.29c-.3-.3-.57-.66-.92-.88-2.71-1.73-5.45-3.41-8.17-5.14-10.22-6.48-20.44-12.97-30.66-19.46-9.13-5.79-18.25-11.58-27.38-17.37-9.13-5.79-18.25-11.58-27.38-17.37-8.35-5.3-16.7-10.61-25.06-15.92-9.12-5.79-18.26-11.56-27.37-17.37-9.11-5.81-18.15-11.74-27.32-17.47-6.9-4.31-13.18-9.42-19.27-14.75-3.8-3.32-7.31-6.99-10.73-10.71-4.12-4.46-8.18-8.99-11.96-13.74-4.41-5.53-8.61-11.23-12.67-17.02-3.66-5.23-7.07-10.65-10.46-16.06-3.39-5.41-6.7-10.88-9.93-16.39-3.18-5.42-6.16-10.96-9.35-16.38-3.29-5.59-5.51-11.62-7.01-17.86-1.66-6.9-2.92-13.9-4.17-20.89-.85-4.74-1.48-9.52-2.05-14.3-.51-4.28-.9-8.57-1.18-12.87-.3-4.57-.4-9.15-.64-13.72-.03-.62-.37-1.22-.57-1.83,0-.29,0-.59,0-.88.1-.25.28-.49.28-.74.02-2.84.02-5.69,0-8.53,0-.25-.18-.49-.28-.74ZM451.48,32.12C315.94,146.05,180.6,259.81,45.11,373.71c2.17,4.92,4.23,9.99,6.6,14.91,2.48,5.15,5.14,10.21,7.9,15.22,2.65,4.79,5.42,9.52,8.33,14.16,2.4,3.82,4.97,7.55,7.67,11.17,4.1,5.48,8.34,10.87,12.62,16.21,2.16,2.69,4.51,5.22,6.84,7.75,3.22,3.49,6.39,7.03,9.79,10.33,4.3,4.16,8.78,8.15,13.26,12.12,2.97,2.63,6.06,5.12,9.13,7.64.23.19.87.2,1.1.01,3.04-2.48,6.04-4.99,9.04-7.52,2.71-2.28,5.38-4.59,8.1-6.86,3.26-2.73,6.57-5.4,9.83-8.13,2.71-2.27,5.38-4.59,8.09-6.86,3.26-2.73,6.57-5.4,9.84-8.12,3.2-2.67,6.36-5.38,9.55-8.05,3.34-2.79,6.72-5.53,10.05-8.32,3.23-2.7,6.43-5.45,9.65-8.16,3.45-2.89,6.92-5.75,10.37-8.63,2.56-2.14,5.1-4.31,7.67-6.45,3.27-2.72,6.57-5.4,9.84-8.12,2.71-2.27,5.37-4.6,8.09-6.87,3.34-2.79,6.71-5.54,10.05-8.32,2.68-2.23,5.31-4.52,7.99-6.75,3.27-2.72,6.57-5.41,9.83-8.13,2.6-2.17,5.17-4.38,7.77-6.56,3.38-2.82,6.78-5.61,10.16-8.43,3.19-2.67,6.36-5.38,9.55-8.05,3.45-2.89,6.92-5.75,10.37-8.63,2.56-2.14,5.11-4.31,7.67-6.45,3.38-2.82,6.77-5.62,10.15-8.44,2.6-2.17,5.17-4.38,7.77-6.55,3.34-2.79,6.71-5.54,10.05-8.33,2.64-2.2,5.23-4.46,7.87-6.67,3.38-2.82,6.78-5.6,10.16-8.42,2.64-2.2,5.24-4.45,7.88-6.65,2.67-2.23,5.38-4.41,8.05-6.64,2.61-2.18,5.19-4.4,7.8-6.59,3.41-2.85,6.85-5.68,10.26-8.53,2.6-2.17,5.18-4.38,7.78-6.54,3.27-2.72,6.57-5.4,9.83-8.13,2.71-2.27,5.38-4.59,8.09-6.86,3.3-2.76,6.64-5.47,9.94-8.23,2.68-2.24,5.31-4.53,7.98-6.76,3.34-2.79,6.71-5.54,10.06-8.32,2.57-2.14,5.11-4.31,7.67-6.45,3.38-2.82,6.79-5.6,10.15-8.44,1.98-1.68,3.87-3.48,5.86-5.14,2.14-1.78,4.39-3.43,6.54-5.21,2.73-2.25,5.39-4.58,8.1-6.85,3.26-2.73,6.57-5.4,9.83-8.13,2.71-2.27,5.38-4.59,8.09-6.86,3.3-2.76,6.63-5.48,9.95-8.22,2.68-2.21,5.38-4.41,8.05-6.64,1.78-1.49,3.51-3.02,5.26-4.53-1.58-2.96-3.11-5.74-4.56-8.56-2.4-4.71-4.7-9.47-7.13-14.17-2.71-5.25-5.48-10.48-8.29-15.68-2.29-4.23-4.53-8.49-7.05-12.59-4.23-6.87-8.6-13.66-13.01-20.42-4.81-7.37-9.64-14.72-14.62-21.97-4.51-6.57-9.2-13.01-13.85-19.47-1.63-2.26-3.38-4.42-5.14-6.7Z"/>
  <path class="cls-1" d="M23.11,300.01c.1.25.28.49.28.74.02,2.84.02,5.69,0,8.53,0,.25-.18.49-.28.74,0-3.34,0-6.68,0-10.01Z"/>
  <path class="cls-1" d="M23.11,282.93c.1.39.28.79.28,1.18.03,2.16.03,4.31,0,6.47,0,.4-.18.79-.28,1.18,0-2.95,0-5.89,0-8.84Z"/>
  <path class="cls-1" d="M307.53,211.47c-4.69,5.71-9.17,11.16-13.61,16.56-2.04-.92-4.05-1.95-6.15-2.75-3.2-1.21-6.56-1.23-9.9-.81-7.12.91-12.44,5.05-17.09,10.09-3.72,4.03-6.12,8.88-6.99,14.32-.85,5.27.15,10.35,2.2,15.25,2.44,5.82,6.2,10.71,10.36,15.4,4.07,4.58,8.69,8.39,14.15,11.13,4.49,2.25,9.32,3.2,14.33,2.83,5.72-.42,10.8-2.63,15.29-6.15,5.17-4.06,9.02-9.14,11.45-15.25,1.04-2.62,1.93-5.3,2.86-7.96.11-.31.19-.81.03-1.01-2.76-3.31-5.56-6.58-8.39-9.9-6.19,5.19-12.36,10.38-18.65,15.65-3.85-4.59-7.63-9.1-11.41-13.6,11.76-9.87,23.36-19.61,35.1-29.47,1.46,1.68,2.95,3.36,4.4,5.08,1.8,2.15,3.56,4.33,5.35,6.49,2.9,3.5,5.81,7,8.73,10.48,2.18,2.6,4.25,5.3,6.61,7.72,1.67,1.7,1.97,3.45,1.48,5.62-1.73,7.64-5.01,14.6-9.06,21.24-2.6,4.26-5.65,8.17-9.1,11.8-4.15,4.37-8.72,8.22-13.94,11.19-3.5,1.99-7.11,3.87-10.88,5.23-3.26,1.18-6.78,1.72-10.23,2.28-2.25.36-4.58.29-6.87.34-5.55.12-10.77-1.42-15.81-3.53-5.58-2.34-10.65-5.51-15.31-9.41-6.35-5.31-11.45-11.6-15.65-18.68-3.07-5.16-5.23-10.71-6.38-16.55-.77-3.92-1.05-8.01-.95-12.01.13-5.75,1.64-11.34,3.93-16.59,1.73-3.95,3.94-7.73,6.97-10.91,2.37-2.49,4.62-5.13,7.18-7.42,6.87-6.17,14.46-11.22,23.48-13.71,2.44-.67,5.05-.77,7.59-1.02,6.9-.67,13.22,1.29,19.23,4.47,1.94,1.03,3.72,2.35,5.66,3.59Z"/>
  <path class="cls-1" d="M220.59,383.81c-9.88-11.77-19.7-23.47-29.64-35.3-10.64,8.92-21.27,17.84-31.95,26.79,9.85,11.75,19.72,23.52,29.62,35.32-5.43,4.55-10.83,9.08-16.31,13.68-22.55-26.89-45.07-53.74-67.73-80.75,5.45-4.57,10.86-9.11,16.3-13.67,8.97,10.68,17.77,21.16,26.67,31.76,10.65-8.94,21.24-17.83,31.93-26.8-1.95-2.33-3.92-4.68-5.89-7.04-2.88-3.46-5.74-6.93-8.63-10.37-2.27-2.71-4.59-5.38-6.87-8.08-1.6-1.88-3.17-3.78-4.78-5.66-.5-.59-.23-.79.28-1.22,5.16-4.32,10.28-8.69,15.53-13.15,22.59,26.94,45.15,53.83,67.75,80.78-5.47,4.61-10.77,9.06-16.28,13.69Z"/>
  <path class="cls-1" d="M390.87,103.33c3.26,8.76,6.51,17.45,9.73,26.16,2.18,5.89,4.32,11.79,6.49,17.68,3.22,8.72,6.46,17.44,9.68,26.16,3.34,9.03,6.68,18.07,10.02,27.11.86,2.34,1.77,4.66,2.57,7.02.13.38-.06,1.1-.36,1.36-5.21,4.49-10.46,8.92-15.69,13.39-.62.53-1.17.69-1.92.25-4.3-2.55-8.6-5.09-12.92-7.61-4.4-2.57-8.82-5.1-13.21-7.67-4.81-2.81-9.61-5.66-14.42-8.47-4.44-2.6-8.89-5.17-13.33-7.76-4.77-2.79-9.53-5.59-14.3-8.38-4.48-2.62-8.96-5.23-13.44-7.85-4.68-2.75-9.36-5.51-14.04-8.26,2.93-2.49,5.88-4.99,8.83-7.5,2.62-2.22,5.24-4.46,7.87-6.67.66-.56,1.21-.54,2.08,0,8.68,5.32,17.44,10.52,26.16,15.79,8.14,4.92,16.25,9.88,24.39,14.81,5.83,3.53,11.69,7.03,17.54,10.54.3.18.63.32,1.26.64-1-2.52-1.89-4.73-2.76-6.94-3.67-9.32-7.31-18.65-11.02-27.96-3.03-7.62-6.13-15.21-9.19-22.82-2.33-5.78-4.64-11.57-6.95-17.36-.33-.83-.18-1.34.68-1.97,2.15-1.57,4.1-3.39,6.14-5.11,3.36-2.84,6.72-5.69,10.09-8.54Z"/>
  <path class="cls-1" d="M443.41,170.68c5.2-4.36,10.3-8.65,15.49-13.01,4.31,5.15,8.56,10.22,12.97,15.47-5.11,4.29-10.21,8.57-15.48,12.99-4.32-5.14-8.62-10.27-12.97-15.46Z"/>
  <path class="cls-1" d="M375.54,253.87c-5.17,4.34-10.25,8.59-15.48,12.97-4.32-5.15-8.63-10.28-12.95-15.43,4.26-3.62,8.51-7.18,12.71-10.81,2.86-2.46,2.91-2.42,5.22.59,2.21,2.87,4.6,5.6,6.92,8.39,1.14,1.37,2.29,2.74,3.58,4.29Z"/>
  <path class="cls-1" d="M240.48,340.67c4.26-3.62,8.51-7.19,12.72-10.81,2.86-2.46,2.91-2.41,5.22.6,2.21,2.87,4.6,5.6,6.92,8.39,1.14,1.37,2.29,2.74,3.57,4.28-5.13,4.3-10.23,8.58-15.47,12.98-4.33-5.16-8.63-10.28-12.95-15.43Z"/>
</svg>